<svg xmlns="http://www.w3.org/2000/svg" viewBox="350 160 780 160" fill="currentColor">
  <g aria-label="4" transform="matrix(3.4830101,0,0,3.4830101,734.89796,-79.251198)" style="font-family:KaratMedium"><path d="m 20.954718,97.538497 -0.853333,4.053333 h -5.226663 v 8.90666 l -4.9066641,0.42667 v -9.33333 H -6.0852659 L 14.768055,73.058512 14.874722,97.538497 Z m -10.9866601,0 v -11.78666 l -8.1599952,11.78666 z"/></g>
  <g aria-label="edu" style="font-family:KaratMedium"><path d="m 910.23717,234.47007 -66.13056,42.16752 q 4.82976,7.61616 11.33136,11.51712 6.68736,3.7152 14.11776,3.7152 14.11776,0 35.2944,-16.34688 l 3.52944,18.76176 q -9.84528,6.68736 -16.34688,9.65952 -10.40256,4.644 -20.99088,4.644 -22.47696,0 -36.2232,-14.67504 -13.74624,-14.8608 -13.74624,-37.70928 0,-19.5048 13.932,-33.4368 14.11776,-14.11776 33.25104,-14.11776 14.11776,0 24.1488,6.5016 10.03104,6.5016 17.83296,19.31904 z m -24.52032,-2.97216 q -2.22912,-2.60064 -6.5016,-4.27248 -4.08672,-1.8576 -9.10224,-1.8576 -14.8608,0 -23.59152,9.65952 -7.98768,8.91648 -7.98768,22.10544 l 0.37152,4.08672 z"/><path d="m 1022.6219,305.61615 -16.7184,2.22912 v -15.04656 q -6.31582,7.24464 -14.11774,11.1456 -9.10224,4.644 -20.06208,4.644 -19.87632,0 -33.99408,-15.04656 -14.11776,-15.04656 -14.11776,-36.03744 0,-20.80512 13.74624,-34.73712 13.932,-14.11776 34.17984,-14.11776 9.47376,0 18.76176,4.08672 7.80192,3.52944 14.48932,9.47376 v -44.95392 l 17.8329,-2.97216 z m -15.6038,-46.81152 q 0,-14.67504 -9.8453,-23.96304 -9.65952,-9.47376 -24.70608,-9.47376 -13.18896,0 -22.10544,10.03104 -8.91648,10.03104 -8.91648,23.40576 0,13.37472 9.47376,23.22 9.47376,9.84528 22.2912,9.84528 14.30352,0 23.59152,-8.3592 10.21682,-9.10224 10.21682,-24.70608 z"/><path d="m 1124.6042,305.61615 -17.4615,2.97216 v -13.932 q -3.9009,5.94432 -11.1456,10.03104 -7.2446,3.90096 -17.6472,3.90096 -15.6038,0 -25.2633,-7.05888 -11.5172,-8.3592 -11.5172,-24.89184 v -65.016 l 17.833,-2.97216 v 65.57328 q 0,9.288 5.5728,13.932 5.5728,4.644 15.2323,4.644 10.5883,0 17.4615,-5.75856 9.1022,-7.61616 9.1022,-22.84848 v -52.57008 l 17.833,-2.97216 z"/></g>
  <path d="m 394.04587,198.58833 c -14.47141,-0.0239 -26.4812,2.94367 -31.125,4.5625 l -4.78125,25.8125 c -0.0116,0.0951 23.79543,-6.34855 34.28125,-5.96875 17.36158,0.62381 18.95948,6.63541 18.65625,14.75 0.29595,0.47462 -4.47933,-7.33192 -19.5,-7.59375 -18.94961,-0.32687 -45.69284,6.70947 -45.65625,35.3125 -0.51086,32.17412 24.03361,41.63882 40.75,41.8125 15.02821,-0.27364 22.0777,-5.69136 25.9375,-8.59375 5.07124,-5.30236 10.87308,-10.63447 16.40625,-17.03125 -5.23567,9.51278 -9.77472,16.0898 -14.5,21.125 v 4.25 l 22.84375,-3.84375 0.15625,-62.09375 c -0.23141,-8.78839 5.04123,-42.41827 -43.46875,-42.5 z m -3.28125,54.0625 c 9.46889,0.12995 20.32788,4.79708 20.34375,16.03125 0.049,10.21821 -12.80005,15.71183 -21.15625,15.625 -8.35976,-0.0868 -19.45093,-6.56982 -19.5,-16.53125 0.16016,-8.90444 10.45953,-15.35418 20.3125,-15.125 z"/>
  <path d="m 452.57818,204.32603 -0.15505,102.82693 26.61213,-5.12724 0.0449,-58.30157 c 0.006,-8.68089 12.40554,-18.82451 27.9627,-18.66287 3.30202,-5.97408 9.5087,-21.24219 11.02088,-24.71514 -34.75649,-0.0833 -35.19897,9.98993 -41.24398,14.94517 -0.0631,-9.45285 -0.0213,-15.12741 -0.0213,-15.12741 l -24.2202,4.16213 z"/>
  <path d="m 602.34592,217.82516 c -0.25696,-0.12068 -13.87938,-15.93419 -41.26638,-16.0589 -25.65249,-0.42638 -54.42578,9.51895 -54.88631,52.5328 0.22457,37.81852 27.6402,52.59809 55.0314,52.88627 29.31292,0.30451 40.97654,-18.32947 41.67615,-18.79124 -3.49762,-3.0321 -16.59792,-16.0131 -16.59792,-16.0131 0,0 -8.18236,11.65102 -24.05802,11.79913 -15.87942,0.1512 -29.68245,-12.27325 -29.87805,-29.60905 -0.20349,-17.33595 12.68881,-26.72821 29.99725,-27.48687 14.98466,-0.003 23.6297,9.67334 23.6297,9.67334 z"/>
  <path d="m 635.88962,168.33833 -25.125,5.90625 0.1875,133.9375 24.75,-4.46875 0.28125,-63.03125 c 0.0529,-6.60927 9.56127,-16.75916 25.4375,-16.4375 15.17973,0.15775 18.57236,10.11767 18.53125,11.375 l 0.4375,72.96875 24.40625,-4.3125 0.0937,-77.375 c 0.1607,-7.44539 -16.30833,-23.16954 -42.78125,-23.28125 -12.58087,0.0202 -19.54815,2.86825 -23.09375,4.96875 -6.06656,4.68565 -12.9998,9.17543 -19.8125,14.90625 6.29809,-8.09099 11.58551,-13.68516 16.75,-17.84375 l -0.0625,-37.3125 z"/>
</svg>
