<?xml version="1.0" encoding="UTF-8" standalone="no"?>
<!-- Created with Inkscape (http://www.inkscape.org/) -->

<svg
   version="1.0"
   width="367.99994"
   height="368.01126"
   id="svg2424"
   sodipodi:docname="v3.svg"
   inkscape:export-filename="v3.jpg"
   inkscape:export-xdpi="262.14401"
   inkscape:export-ydpi="262.14401"
   inkscape:version="1.2.1 (9c6d41e410, 2022-07-14)"
   xml:space="preserve"
   xmlns:inkscape="http://www.inkscape.org/namespaces/inkscape"
   xmlns:sodipodi="http://sodipodi.sourceforge.net/DTD/sodipodi-0.dtd"
   xmlns="http://www.w3.org/2000/svg"
   xmlns:svg="http://www.w3.org/2000/svg"><defs
     id="defs18" /><sodipodi:namedview
     id="namedview16"
     pagecolor="#ffffff"
     bordercolor="#000000"
     borderopacity="0.25"
     inkscape:showpageshadow="2"
     inkscape:pageopacity="0.0"
     inkscape:pagecheckerboard="0"
     inkscape:deskcolor="#d1d1d1"
     showgrid="false"
     inkscape:lockguides="false"
     inkscape:zoom="2.7671446"
     inkscape:cx="68.662837"
     inkscape:cy="191.89456"
     inkscape:window-width="2560"
     inkscape:window-height="1377"
     inkscape:window-x="-8"
     inkscape:window-y="-8"
     inkscape:window-maximized="1"
     inkscape:current-layer="svg2424" /><path
     id="path335-0"
     style="display:inline;fill:#ffffff;stroke:#000000;stroke-width:2.92067"
     inkscape:label="outer circle"
     d="M 39.182028,295.13177 A 182.53902,182.54465 0.03133246 0 1 72.877255,39.183234 182.53902,182.54465 0.03133246 0 1 328.81791,72.879493 182.53902,182.54465 0.03133246 0 1 295.12269,328.82804 182.53902,182.54465 0.03133246 0 1 39.182028,295.13177 Z" /><circle
     style="display:none;fill:#000000;fill-opacity:1;stroke-width:1.14102"
     id="circle925"
     cx="3.1554711"
     cy="259.76587"
     transform="matrix(-0.69841528,0.71569273,0.71569273,0.69841528,0,0)"
     inkscape:label="middle circle"
     r="176" /><path
     id="circle1081"
     style="display:inline;fill-opacity:0;stroke:#000000;stroke-width:2.92881"
     inkscape:label="inner circle"
     d="M 73.24077,275.29766 A 143.5233,143.54024 89.985808 0 1 92.697126,73.259511 143.5233,143.54024 89.985808 0 1 294.75912,92.713567 143.5233,143.54024 89.985808 0 1 275.30276,294.75172 143.5233,143.54024 89.985808 0 1 73.24077,275.29766 Z" /><g
     transform="matrix(0.256841,0,0,0.256841,-4.8718714,223.85434)"
     id="g2809"
     style="fill:#4d4d4d;fill-opacity:1"
     inkscape:label="ARCH LINUX REPOSITORY FOR EDUCATION"><path
       id="path335"
       style="display:none;fill:#000000;fill-opacity:0;stroke:#000000;stroke-width:3.78444"
       inkscape:label="inner circle"
       transform="rotate(140.5)"
       d="m -83.495361,-349.18347 a 584.01892,584.01892 0 0 1 -584.018919,584.01892 584.01892,584.01892 0 0 1 -584.01892,-584.01892 584.01892,584.01892 0 0 1 584.01892,-584.01892 584.01892,584.01892 0 0 1 584.018919,584.01892 z" /><g
       aria-label="ARCH LINUX REPOSITORY FOR EDUCATION"
       transform="translate(-0.10566847)"
       id="text280"
       style="font-size:145.356px;font-family:KaratMedium;-inkscape-font-specification:'KaratMedium, Normal';fill:#000000;stroke-width:3.89346"
       inkscape:label="text280"><path
         d="m 227.85457,136.27625 10.50741,10.04802 -18.4946,33.52524 22.86478,32.96477 37.79711,-5.69628 5.23284,12.64513 -112.19694,16.26041 z m -15.42283,55.80667 -15.41055,28.02503 31.56501,-4.7347 z"
         id="path2544" /><path
         d="m 196.04949,72.18867 10.7597,12.507868 -29.97136,53.684702 43.47667,-21.27834 7.90077,11.98069 -90.8601,45.14716 -10.86637,-21.86891 q -6.46807,-13.0172 -3.51367,-24.71081 2.82424,-11.62892 15.84144,-18.09699 10.41377,-5.17446 19.31232,-2.29203 7.33972,2.3585 13.95013,10.43565 z m -50.76403,50.05755 q -15.36031,7.63233 -6.88713,24.68487 l 4.33361,8.72153 31.37147,-15.58806 -4.39829,-8.8517 q -3.3634,-6.76895 -9.79192,-9.58021 -7.07776,-3.13791 -14.62774,0.61357 z"
         id="path2546" /><path
         d="m 157.8952,7.9290989 15.56235,-2.5607531 q 3.80804,4.8420462 5.67234,8.0448262 2.00183,3.155714 3.41385,7.281455 6.58942,19.253456 -3.28147,37.995055 -9.87089,18.741599 -30.08702,25.660488 -18.29079,6.259946 -38.5378,-2.173922 -20.247019,-8.433867 -26.224562,-25.899503 -1.03548,-3.025543 -1.944466,-7.477077 -0.908987,-4.451535 -1.13035,-9.138405 l 13.589204,-7.877149 q -1.15756,4.697902 -0.896484,8.603015 0.123551,3.95218 1.770905,8.765544 4.847933,14.165043 19.470403,20.529421 14.43789,6.273921 28.74046,1.378925 14.85266,-5.083265 22.65406,-18.200325 8.25369,-14.04002 3.26456,-28.617637 -1.45908,-4.263265 -4.43462,-8.468432 -3.16012,-4.295624 -7.60136,-7.8455261 z"
         id="path2548" /><path
         d="m 155.47208,-90.266328 4.23329,13.712715 -46.35465,8.319705 8.67919,48.357634 44.63782,-8.011568 4.23329,13.712715 -99.862802,17.9233156 -4.805573,-13.6100027 42.920975,-7.7034309 -8.6792,-48.357634 -40.631855,7.292582 -4.805573,-13.610003 z"
         id="path2550" /><path
         d="m 141.36038,-206.99187 12.90227,6.20294 -1.5174,50.70655 -99.669596,-2.98262 -1.898567,-14.30808 88.918073,2.66088 z"
         id="path2552" /><path
         d="m 157.66987,-227.94647 -0.44719,14.28527 -100.236584,-11.34946 -0.708268,-14.4161 z"
         id="path2554" /><path
         d="m 178.64757,-322.36412 -82.269772,47.19515 65.769492,14.94076 -1.45465,14.27738 -101.20565,-22.99075 82.26977,-47.19515 -63.501579,-14.42556 0.887678,-14.40617 z"
         id="path2556" /><path
         d="m 172.76723,-420.17481 q 21.30694,8.57106 26.68429,19.35135 5.29675,10.5912 -1.91812,28.52678 -7.37761,18.34015 -18.66791,22.25895 -11.3709,3.72969 -32.27328,-4.67862 l -56.908406,-22.8923 3.158557,-14.08365 65.673919,26.41837 q 9.43978,3.7973 16.24743,0.89545 6.67279,-2.95609 10.19885,-11.72161 3.7973,-9.43978 1.67822,-16.2459 -2.46787,-7.88647 -12.31222,-11.84651 l -63.65111,-25.60466 3.15856,-14.08365 z"
         id="path2558" /><path
         d="m 251.35838,-486.89951 -2.41087,14.24111 -52.75341,1.89534 23.55172,48.21373 -11.76751,7.77898 -25.87723,-54.61606 -52.49141,2.88921 3.03881,-13.87518 43.9541,-1.80788 -19.65595,-39.88688 10.574,-9.48394 22.70423,48.22455 z"
         id="path2560" /><path
         d="m 324.77081,-572.79578 -7.60456,14.64201 -60.98287,-7.83703 35.9313,32.43346 -8.17933,11.79228 -75.72105,-67.52887 16.25336,-18.22512 q 9.67463,-10.84829 21.62771,-12.45842 11.84461,-1.70687 22.6929,7.96776 8.67863,7.73969 9.31526,17.07175 0.54274,7.69022 -4.49377,16.83196 z m -65.35519,-28.48587 q -12.80098,-11.41605 -25.47474,2.79521 l -6.48199,7.26835 26.14437,23.31584 6.57874,-7.37684 q 5.03081,-5.64111 5.24745,-12.6541 0.27818,-7.73717 -6.01383,-13.34846 z"
         id="path2562" /><path
         d="m 369.05761,-626.42276 5.54209,12.52955 -41.7059,36.4367 -65.60517,-75.09252 40.06394,-35.00218 10.90584,7.84347 -31.63519,27.63833 18.55307,21.23607 25.28626,-22.09153 8.60709,9.85178 -25.28626,22.09154 21.23083,24.30108 z"
         id="path2564" /><path
         d="m 399.04427,-716.2299 q 9.59497,14.21717 4.78989,27.10494 -4.16942,11.23125 -18.98902,21.23278 l -6.26519,4.22829 21.30408,31.56694 -10.83172,9.41452 -56.75668,-84.09819 22.28963,-15.04295 q 12.16894,-8.21265 24.55398,-6.75088 12.4242,1.25997 19.90503,12.34455 z m -11.64486,8.20967 q -5.20405,-7.71101 -13.34539,-7.30202 -6.24682,0.35793 -13.71686,5.39935 l -8.91585,6.01719 19.84044,29.39822 9.63876,-6.50507 q 8.31343,-5.61061 10.13016,-12.27291 1.81673,-6.6623 -3.63126,-14.73476 z"
         id="path2566" /><path
         d="m 517.74921,-752.13568 q 9.24112,19.90853 1.76218,40.04631 -7.47893,20.13778 -27.25562,29.3177 -19.77668,9.17992 -39.98511,1.89403 -20.20842,-7.28589 -29.44954,-27.19442 -9.30233,-20.04037 -1.63035,-40.10751 7.74263,-20.26018 27.12378,-29.2565 19.51299,-9.05753 39.79207,-1.96468 20.27907,7.09285 29.64259,27.26507 z m -12.92077,5.99755 q -6.54835,-14.10737 -21.65754,-20.07442 -15.10919,-5.96705 -29.3484,0.64249 -13.71183,6.36475 -19.2928,21.61523 -5.58096,15.25048 1.27338,30.01707 6.54835,14.10737 21.65754,20.07442 15.17983,5.774 29.41905,-0.83554 14.10736,-6.54834 19.36344,-21.80827 5.25607,-15.25993 -1.41467,-29.63098 z"
         id="path2568" /><path
         d="m 600.15333,-752.47842 q 3.52001,12.44859 -2.63913,23.25349 -6.15913,10.80489 -19.02734,14.44356 -9.23153,2.61034 -18.05023,0.27018 -6.68396,-1.73534 -15.99271,-7.41121 l 7.69773,-11.23995 q 4.20293,3.64533 9.2692,5.53599 6.38299,2.27361 12.39748,0.57293 8.53218,-2.41259 11.64213,-7.97468 3.21027,-5.74152 1.03499,-13.43447 -2.61035,-9.23154 -14.92584,-10.58293 -12.21517,-1.53082 -23.93162,-2.90054 -13.44702,-3.75043 -17.52074,-18.15723 -3.48046,-12.30871 2.39605,-21.9763 5.97682,-9.84702 19.40451,-13.64388 7.83282,-2.21484 16.03415,-0.45539 8.16178,1.61959 14.91617,6.80928 l -6.62119,11.84189 q -6.71773,-3.99163 -11.3065,-5.26203 -5.26691,-1.53181 -10.44217,-0.0684 -6.57397,1.85888 -9.62316,7.10168 -2.94886,5.06338 -1.08998,11.63736 2.29394,8.11256 15.00783,9.80447 22.7731,3.07707 23.77053,3.39925 13.60522,4.30992 17.59984,18.43697 z"
         id="path2570" /><path
         d="m 636.3402,-730.44576 -13.78511,3.77354 -18.62957,-99.14193 13.57037,-4.91638 z"
         id="path2572" /><path
         d="m 698.55186,-825.38209 -23.13407,2.38768 8.89408,86.17441 -13.99054,3.19751 -9.07316,-87.90947 -25.73665,2.65628 3.13916,-13.47552 58.55812,-6.0438 z"
         id="path2574" /><path
         d="m 820.64159,-785.68494 q -1.08059,21.92214 -17.0687,36.26943 -15.98812,14.34729 -37.76508,13.27386 -21.77696,-1.07343 -36.27659,-16.92353 -14.49963,-15.85009 -13.41904,-37.77223 1.08774,-22.06732 17.21389,-36.26228 16.27847,-14.33297 37.61989,-13.28101 21.48661,1.05912 36.13857,16.77119 14.65196,15.71207 13.55706,37.92457 z m -14.22761,-0.70131 q 0.76571,-15.53423 -9.83348,-27.84482 -10.59918,-12.31058 -26.27859,-13.08346 -15.0987,-0.74424 -27.13324,10.15962 -12.03454,10.90386 -12.83603,27.16399 -0.76572,15.53423 9.83347,27.84482 10.75152,12.17256 26.43093,12.94543 15.53424,0.76571 27.28557,-10.29764 11.75134,-11.06335 12.53137,-26.88794 z"
         id="path2576" /><path
         d="m 894.70699,-720.56532 -16.48516,0.67625 -23.50115,-56.81572 -10.29192,47.29762 -14.29774,-1.23856 20.97665,-99.26634 23.89219,5.04883 q 14.22153,3.00525 21.55827,12.57819 7.36678,9.43072 4.36153,23.65226 -2.4042,11.37723 -10.1863,16.56677 -6.40397,4.29224 -16.83989,4.46401 z m -7.75449,-70.8704 q 3.5462,-16.78142 -15.08402,-20.7183 l -9.52843,-2.01352 -7.24265,34.27391 9.67065,2.04357 q 7.3952,1.56273 13.58879,-1.734 6.85262,-3.60317 8.59566,-11.85166 z"
         id="path2578" /><path
         d="m 996.56365,-786.92619 -75.02685,80.03358 -12.19173,-7.44301 28.78296,-29.8848 -14.74214,-68.1493 14.51819,0.71122 11.48137,55.33425 35.64106,-39.04905 z"
         id="path2580" /><path
         d="m 1097.3112,-721.77745 -34.4492,-19.69585 -13.9964,24.4804 26.4995,15.15066 -6.4932,11.35689 -26.4994,-15.15066 -22.5095,39.37054 -13.2322,-5.55605 50.3579,-88.07898 44.6704,25.53968 z"
         id="path2582" /><path
         d="m 1172.501,-618.87137 q -13.6548,17.18416 -35.0087,19.52458 -21.3538,2.34042 -38.4242,-11.2239 -17.0703,-13.56433 -19.615,-34.89481 -2.5446,-21.33049 11.1101,-38.51465 13.7452,-17.29797 35.1224,-19.43416 21.5815,-2.15956 38.3104,11.13348 16.8428,13.38348 19.5917,34.69058 2.7489,21.30711 -11.0867,38.71888 z m -11.1527,-8.86203 q 9.6759,-12.17686 8.2379,-28.35787 -1.4381,-16.18102 -13.7288,-25.94734 -11.8354,-9.4046 -27.9697,-7.55809 -16.1342,1.84651 -26.2623,14.59238 -9.6759,12.17686 -8.2378,28.35788 1.6423,16.15764 13.9329,25.92396 12.1769,9.67589 28.174,7.53471 15.9971,-2.14117 25.8538,-14.54563 z"
         id="path2584" /><path
         d="m 1194.7277,-522.78239 -13.7893,-9.05944 14.021,-59.86436 -35.9318,32.43294 -10.8958,-9.34032 74.9055,-68.43245 16.4708,18.02882 q 9.8041,10.73144 10.1857,22.78645 0.4889,11.95696 -10.2425,21.76104 -8.5852,7.84326 -17.9335,7.52398 -7.7054,-0.24508 -16.2853,-6.18843 z m 35.0083,-62.10609 q 12.6631,-11.56881 -0.1803,-25.627 l -6.5687,-7.19006 -25.8628,23.62782 6.6668,7.29738 q 5.0981,5.58035 12.0524,6.51172 7.6683,1.0665 13.8926,-4.61986 z"
         id="path2586" /><path
         d="m 1264.3399,-437.4874 -13.2912,3.32388 -28.7896,-47.30937 85.1817,-51.83631 27.6561,45.4468 -9.5886,9.40828 -21.8377,-35.88559 -24.0893,14.65925 17.4551,28.68364 -11.1755,6.80068 -17.455,-28.68364 -27.5661,16.77502 z"
         id="path2588" /><path
         d="m 1334.884,-370.00722 q -18.8098,8.13912 -37.5582,1.04716 -19.5129,-7.39467 -28.2292,-27.53848 l -9.8132,-22.67846 91.5143,-39.59883 9.8708,22.81187 q 8.7164,20.1438 0.4815,39.54512 -7.8564,18.44568 -26.266,26.41162 z m -5.657,-13.07346 q 14.6743,-6.34967 19.9859,-21.16007 4.9332,-13.85478 -0.4929,-26.39463 l -4.2716,-9.8718 -67.5017,29.20846 4.3293,10.00521 q 5.3106,12.27304 18.4625,18.14392 14.5474,6.53402 29.4885,0.0689 z"
         id="path2590" /><path
         d="m 1348.3133,-278.89164 q -22.2158,5.82303 -32.9604,0.37467 -10.5671,-5.3446 -15.4688,-24.04523 -5.0122,-19.12244 1.7152,-29.00016 6.9049,-9.77397 28.6989,-15.48644 l 59.3358,-15.55264 5.8615,13.18973 -68.4752,17.9482 q -9.8425,2.57982 -13.5775,8.96841 -3.5945,6.35174 -1.1989,15.49114 2.5798,9.84243 8.339,14.04298 6.6835,4.8599 16.9477,2.16952 l 66.3662,-17.39538 5.8614,13.18973 z"
         id="path2592" /><path
         d="m 1338.0471,-188.69637 -15.7473,-0.87556 q -2.6672,-5.55272 -3.7925,-9.08361 -1.2697,-3.51478 -1.7533,-7.84856 -2.2566,-20.22434 11.4442,-36.37888 13.7009,-16.15454 34.9364,-18.524 19.2131,-2.1438 37.1489,10.48073 17.9358,12.62453 19.9829,30.97089 0.3546,3.17811 0.2765,7.72083 -0.078,4.54272 -0.8786,9.16603 l -14.9742,4.74224 q 2.1489,-4.335 2.741,-8.20378 0.7366,-3.8849 0.1725,-8.94098 -1.6603,-14.87933 -14.5543,-24.26372 -12.7334,-9.25604 -27.7572,-7.57968 -15.6016,1.74082 -26.0623,12.85357 -11.1024,11.91565 -9.3938,27.22835 0.4997,4.47825 2.4923,9.22868 2.1532,4.87878 5.7188,9.30745 z"
         id="path2594" /><path
         d="m 1319.1982,-80.37998 -2.3192,-14.352332 34.974,-15.582428 1.6488,-40.08436 -33.582,-18.25691 3.4542,-13.24197 99.2939,54.71097 z m 45.9647,-35.20644 29.1964,-13.05598 -28.0314,-15.26449 z"
         id="path2596" /><path
         d="m 1391.6563,-5.6277042 4.148,-22.8840638 -85.2432,-15.451264 0.8244,-14.327589 86.9594,15.762364 4.6147,-25.458522 12.0686,6.767032 -10.4996,57.9252874 z"
         id="path2598" /><path
         d="m 1299.3888,3.1229992 2.5696,-14.0593782 97.4286,26.150464 -1.4465,14.360824 z"
         id="path2600" /><path
         d="m 1304.5214,132.35206 q -20.3281,-8.27746 -28.573,-28.11392 -8.245,-19.836465 -0.022,-40.02994 8.2227,-20.193476 27.9793,-28.627879 19.7567,-8.434402 40.0848,-0.156945 20.4627,8.332275 28.5182,28.248544 8.1354,20.10571 0.077,39.89532 -8.113,19.92423 -27.7899,28.54807 -19.6768,8.62384 -40.2742,0.23675 z m 5.3721,-13.19307 q 14.4047,5.86548 29.5302,-0.0603 15.1254,-5.92576 21.0457,-20.465058 5.701,-14.00081 -0.6036,-28.966631 -6.3047,-14.96582 -21.3825,-21.105392 -14.4046,-5.865483 -29.5301,0.06028 -15.0456,6.115199 -20.9659,20.654502 -5.8655,14.404679 0.6834,29.156071 6.5489,14.751388 21.2228,20.726508 z"
         id="path2602" /><path
         d="m 1206.904,190.2057 93.3515,-16.76867 -56.9102,-36.19508 6.1729,-12.95591 87.573,55.69675 -93.3516,16.76867 54.9478,34.94697 -5.6822,13.26793 z"
         id="path2604" /></g></g><path
     d="m 183.98306,59.005524 c -8.01316,19.642445 -12.84632,32.490905 -21.76792,51.549466 5.47007,5.79717 12.1843,12.54826 23.08822,20.17299 -11.72277,-4.82294 -19.71914,-9.66505 -25.69495,-14.68974 -11.41795,23.82085 -29.30659,57.75255 -65.608435,122.9673 28.532035,-16.46893 50.649545,-26.62221 71.262005,-30.49643 -0.88511,-3.80612 -1.38834,-7.92318 -1.35415,-12.21888 l 0.0338,-0.91388 c 0.45273,-18.27627 9.96182,-32.33072 21.22625,-31.37645 11.26443,0.95426 20.02015,16.55259 19.56743,34.82888 -0.0851,3.43902 -0.47313,6.74731 -1.15103,9.81572 20.38867,3.98764 42.26967,14.11491 70.41566,30.36104 -5.54984,-10.21571 -10.50356,-19.42444 -15.23416,-28.19482 -7.45148,-5.7743 -15.22375,-13.28958 -31.07768,-21.42534 10.89708,2.83098 18.69925,6.09719 24.7809,9.74802 C 204.37156,109.6012 200.4767,97.704228 183.98302,59.005524 Z"
     style="fill:#1793d1;fill-opacity:1;fill-rule:evenodd;stroke:none;stroke-width:1.08322"
     id="path11"
     inkscape:label="Arch linux logo" /><g
     id="g190"
     transform="matrix(0.25684124,0,0,0.25684124,-4.8447746,193.8543)"
     style="display:inline;fill:#4d4d4d;fill-opacity:1"
     inkscape:label="arch4edu"><g
       aria-label="4"
       transform="matrix(3.4830101,0,0,3.4830101,734.89796,-79.251198)"
       id="text758"
       style="font-size:53.3333px;font-family:KaratMedium;-inkscape-font-specification:'KaratMedium, Normal';fill:#000000"
       inkscape:label="text758"><path
         d="m 20.954718,97.538497 -0.853333,4.053333 h -5.226663 v 8.90666 l -4.9066641,0.42667 v -9.33333 H -6.0852659 L 14.768055,73.058512 14.874722,97.538497 Z m -10.9866601,0 v -11.78666 l -8.1599952,11.78666 z"
         id="path2533" /></g><g
       aria-label="edu"
       id="text402"
       style="font-size:185.76px;font-family:KaratMedium;-inkscape-font-specification:'KaratMedium, Normal';fill:#000000;stroke-width:3.48301"><path
         d="m 910.23717,234.47007 -66.13056,42.16752 q 4.82976,7.61616 11.33136,11.51712 6.68736,3.7152 14.11776,3.7152 14.11776,0 35.2944,-16.34688 l 3.52944,18.76176 q -9.84528,6.68736 -16.34688,9.65952 -10.40256,4.644 -20.99088,4.644 -22.47696,0 -36.2232,-14.67504 -13.74624,-14.8608 -13.74624,-37.70928 0,-19.5048 13.932,-33.4368 14.11776,-14.11776 33.25104,-14.11776 14.11776,0 24.1488,6.5016 10.03104,6.5016 17.83296,19.31904 z m -24.52032,-2.97216 q -2.22912,-2.60064 -6.5016,-4.27248 -4.08672,-1.8576 -9.10224,-1.8576 -14.8608,0 -23.59152,9.65952 -7.98768,8.91648 -7.98768,22.10544 l 0.37152,4.08672 z"
         id="path2536" /><path
         d="m 1022.6219,305.61615 -16.7184,2.22912 v -15.04656 q -6.31582,7.24464 -14.11774,11.1456 -9.10224,4.644 -20.06208,4.644 -19.87632,0 -33.99408,-15.04656 -14.11776,-15.04656 -14.11776,-36.03744 0,-20.80512 13.74624,-34.73712 13.932,-14.11776 34.17984,-14.11776 9.47376,0 18.76176,4.08672 7.80192,3.52944 14.48932,9.47376 v -44.95392 l 17.8329,-2.97216 z m -15.6038,-46.81152 q 0,-14.67504 -9.8453,-23.96304 -9.65952,-9.47376 -24.70608,-9.47376 -13.18896,0 -22.10544,10.03104 -8.91648,10.03104 -8.91648,23.40576 0,13.37472 9.47376,23.22 9.47376,9.84528 22.2912,9.84528 14.30352,0 23.59152,-8.3592 10.21682,-9.10224 10.21682,-24.70608 z"
         id="path2538" /><path
         d="m 1124.6042,305.61615 -17.4615,2.97216 v -13.932 q -3.9009,5.94432 -11.1456,10.03104 -7.2446,3.90096 -17.6472,3.90096 -15.6038,0 -25.2633,-7.05888 -11.5172,-8.3592 -11.5172,-24.89184 v -65.016 l 17.833,-2.97216 v 65.57328 q 0,9.288 5.5728,13.932 5.5728,4.644 15.2323,4.644 10.5883,0 17.4615,-5.75856 9.1022,-7.61616 9.1022,-22.84848 v -52.57008 l 17.833,-2.97216 z"
         id="path2540" /></g><path
       d="m 394.04587,198.58833 c -14.47141,-0.0239 -26.4812,2.94367 -31.125,4.5625 l -4.78125,25.8125 c -0.0116,0.0951 23.79543,-6.34855 34.28125,-5.96875 17.36158,0.62381 18.95948,6.63541 18.65625,14.75 0.29595,0.47462 -4.47933,-7.33192 -19.5,-7.59375 -18.94961,-0.32687 -45.69284,6.70947 -45.65625,35.3125 -0.51086,32.17412 24.03361,41.63882 40.75,41.8125 15.02821,-0.27364 22.0777,-5.69136 25.9375,-8.59375 5.07124,-5.30236 10.87308,-10.63447 16.40625,-17.03125 -5.23567,9.51278 -9.77472,16.0898 -14.5,21.125 v 4.25 l 22.84375,-3.84375 0.15625,-62.09375 c -0.23141,-8.78839 5.04123,-42.41827 -43.46875,-42.5 z m -3.28125,54.0625 c 9.46889,0.12995 20.32788,4.79708 20.34375,16.03125 0.049,10.21821 -12.80005,15.71183 -21.15625,15.625 -8.35976,-0.0868 -19.45093,-6.56982 -19.5,-16.53125 0.16016,-8.90444 10.45953,-15.35418 20.3125,-15.125 z"
       id="path2284"
       style="fill:#4d4d4d;fill-opacity:1;fill-rule:evenodd;stroke:none" /><path
       d="m 452.57818,204.32603 -0.15505,102.82693 26.61213,-5.12724 0.0449,-58.30157 c 0.006,-8.68089 12.40554,-18.82451 27.9627,-18.66287 3.30202,-5.97408 9.5087,-21.24219 11.02088,-24.71514 -34.75649,-0.0833 -35.19897,9.98993 -41.24398,14.94517 -0.0631,-9.45285 -0.0213,-15.12741 -0.0213,-15.12741 l -24.2202,4.16213 z"
       id="path2286"
       style="fill:#4d4d4d;fill-opacity:1;fill-rule:evenodd;stroke:none" /><path
       d="m 602.34592,217.82516 c -0.25696,-0.12068 -13.87938,-15.93419 -41.26638,-16.0589 -25.65249,-0.42638 -54.42578,9.51895 -54.88631,52.5328 0.22457,37.81852 27.6402,52.59809 55.0314,52.88627 29.31292,0.30451 40.97654,-18.32947 41.67615,-18.79124 -3.49762,-3.0321 -16.59792,-16.0131 -16.59792,-16.0131 0,0 -8.18236,11.65102 -24.05802,11.79913 -15.87942,0.1512 -29.68245,-12.27325 -29.87805,-29.60905 -0.20349,-17.33595 12.68881,-26.72821 29.99725,-27.48687 14.98466,-0.003 23.6297,9.67334 23.6297,9.67334 z"
       id="path2288"
       style="fill:#4d4d4d;fill-opacity:1;fill-rule:evenodd;stroke:none" /><path
       d="m 635.88962,168.33833 -25.125,5.90625 0.1875,133.9375 24.75,-4.46875 0.28125,-63.03125 c 0.0529,-6.60927 9.56127,-16.75916 25.4375,-16.4375 15.17973,0.15775 18.57236,10.11767 18.53125,11.375 l 0.4375,72.96875 24.40625,-4.3125 0.0937,-77.375 c 0.1607,-7.44539 -16.30833,-23.16954 -42.78125,-23.28125 -12.58087,0.0202 -19.54815,2.86825 -23.09375,4.96875 -6.06656,4.68565 -12.9998,9.17543 -19.8125,14.90625 6.29809,-8.09099 11.58551,-13.68516 16.75,-17.84375 l -0.0625,-37.3125 z"
       id="path2290"
       style="fill:#4d4d4d;fill-opacity:1;fill-rule:evenodd;stroke:none" /></g><g
     aria-label="— since 2016 —"
     id="text424"
     style="font-size:37.3333px;font-family:KaratMedium;-inkscape-font-specification:'KaratMedium, Normal'"
     inkscape:label="since 2016"
     transform="translate(-5.0007324,-4.9950619)"><path
       d="m 99.453344,332.18945 -29.306568,-23.12791 1.711466,-2.16869 29.306568,23.12792 z"
       id="path2510" /><path
       d="m 118.69158,344.34087 q -1.26242,2.54101 -3.8654,3.16541 -2.35276,0.54027 -4.65974,-0.60587 -1.93919,-0.96342 -3.02783,-2.29632 -1.08864,-1.33291 -1.54501,-3.51892 l 3.13687,-0.77602 q 0.35415,1.38487 0.92402,2.2516 0.61992,0.84992 1.68982,1.38146 1.13677,0.56477 2.25502,0.41165 1.15167,-0.13651 1.63338,-1.10611 0.99665,-2.00606 -2.61789,-5.21917 -3.56449,-3.22993 -1.90342,-6.57337 1.14614,-2.30698 3.44821,-3.08087 2.30208,-0.77389 4.70935,0.42208 1.8389,0.91359 2.86067,2.21328 0.83756,1.0831 1.44322,2.88472 l -2.95224,1.15956 q -0.45424,-1.35122 -0.97364,-2.06782 -0.48597,-0.69999 -1.48901,-1.19831 -1.23707,-0.6146 -2.15492,-0.4453 -0.91785,0.1693 -1.44939,1.2392 -0.73087,1.47112 1.06011,3.23633 3.11323,3.04742 3.33109,3.36409 1.55864,2.31677 0.14673,5.1587 z"
       id="path2512" /><path
       d="m 132.15594,329.98995 -3.21526,1.6911 -1.12506,-3.50473 3.22965,-1.72555 z m -9.71439,21.79568 -3.53721,-0.83066 7.5136,-17.9813 3.53721,0.83066 z"
       id="path2514" /><path
       d="m 142.32605,358.69396 -3.59387,-0.53474 4.03312,-12.4679 q 0.57452,-1.77605 -0.0858,-3.00984 -0.66032,-1.23379 -2.79159,-1.92321 -2.27334,-0.73538 -4.14126,0.30838 -1.82091,1.01973 -2.63672,3.54173 l -3.25178,10.05246 -3.59387,-0.53474 5.99798,-18.542 3.59386,0.53474 -0.86177,2.66408 q 2.49574,-2.13552 6.33202,-0.89456 2.73512,0.88475 4.18006,2.72549 1.88687,2.41532 0.7838,5.82534 z"
       id="path2516" /><path
       d="m 162.33048,360.23319 q -1.90057,1.28967 -3.82033,1.73728 -1.87574,0.41848 -3.74152,0.0389 -3.91449,-0.79633 -6.10692,-4.25208 -2.19243,-3.45576 -1.3961,-7.37024 0.87076,-4.28033 4.15848,-6.58314 3.28772,-2.30281 7.16562,-1.51392 1.90237,0.387 3.49529,1.35872 1.60037,0.93514 2.96384,2.66024 l -2.61307,1.98288 q -1.10182,-1.1385 -1.26241,-1.28546 -1.13159,-0.99216 -3.03396,-1.37917 -2.70721,-0.55073 -4.85088,1.18476 -1.96011,1.58234 -2.48108,4.14322 -0.55818,2.7438 1.04461,5.16525 1.42794,2.15729 3.47664,2.57406 1.39019,0.28281 2.50385,0.0522 1.15769,-0.25976 2.69861,-1.27972 z"
       id="path2518" /><path
       d="m 183.00376,350.51849 -13.99164,7.25916 q 0.8307,1.61093 2.06247,2.50802 1.27228,0.86323 2.75969,0.99603 2.82609,0.25231 7.35738,-2.64152 l 0.37121,3.8188 q -2.09035,1.16272 -3.44496,1.64148 -2.16538,0.74372 -4.28495,0.55448 -4.49943,-0.40172 -6.98887,-3.58504 -2.48612,-3.22051 -2.07776,-7.79432 0.3486,-3.90446 3.38651,-6.44437 3.0784,-2.57377 6.9085,-2.23181 2.82609,0.25232 4.7179,1.73309 1.89181,1.48077 3.22452,4.186 z m -4.85535,-1.03321 q -0.39975,-0.56043 -1.22513,-0.97146 -0.78488,-0.44489 -1.78889,-0.53453 -2.97483,-0.2656 -4.89518,1.512 -1.75833,1.64214 -1.99405,4.2823 l 0.001,0.82472 z"
       id="path2520" /><path
       d="m 212.38958,359.91229 -0.37803,3.40562 -16.69948,1.45392 7.75762,-10.75605 q 2.6096,-3.59991 3.35326,-5.38849 0.74367,-1.78857 0.62062,-3.20189 -0.18781,-2.15717 -1.66755,-3.22753 -1.48299,-1.10754 -3.64016,-0.91973 -2.08279,0.18134 -3.41025,1.72094 -1.29351,1.49918 -1.12836,3.396 0.19429,2.23156 1.44283,3.65931 1.2453,1.39056 3.4219,1.4259 l -2.05337,3.10179 q -2.67472,-0.59157 -4.28233,-2.70007 -1.61084,-2.1457 -1.87637,-5.1955 -0.30762,-3.5333 1.91561,-5.97533 2.25719,-2.48247 5.86487,-2.79656 3.68207,-0.32058 6.21625,1.66978 2.53095,1.95317 2.84505,5.56085 0.21695,2.49191 -1.17343,5.46102 -1.13816,2.42252 -3.35326,5.38849 -1.92569,2.41613 -3.81742,4.79183 z"
       id="path2522" /><path
       d="m 231.08269,346.57717 q 1.21205,5.84907 -0.39277,9.87988 -1.67661,4.23633 -5.9903,5.13022 -4.53302,0.93934 -7.83076,-2.64746 -2.85509,-3.10662 -3.96867,-8.48045 -1.20447,-5.81251 0.26169,-9.77647 1.63874,-4.41911 6.09865,-5.3433 4.45991,-0.9242 7.72735,2.51638 2.9282,3.09147 4.09481,8.7212 z m -3.58256,0.74238 q -0.91661,-4.42335 -2.68224,-6.6882 -2.02416,-2.59254 -4.83902,-2.00924 -2.92453,0.60603 -3.75179,3.78944 -0.69125,2.73584 0.23294,7.19575 0.96964,4.67926 2.89665,6.98692 1.91942,2.2711 4.69773,1.69538 2.77831,-0.57573 3.62071,-3.68603 0.74921,-2.8241 -0.17498,-7.28402 z"
       id="path2524" /><path
       d="m 247.44178,354.65765 -3.37561,1.44232 -6.37467,-19.08624 -3.92853,4.73646 -1.97263,-1.78151 7.27817,-10.14552 z"
       id="path2526" /><path
       d="m 268.46182,336.5435 q 1.62516,3.44379 0.37898,6.83903 -1.24618,3.39523 -4.65621,5.00446 -3.27498,1.5455 -6.49495,0.6707 -3.6513,-1.00149 -5.41986,-4.74915 -0.95597,-2.02576 -1.20407,-3.60122 -0.26404,-1.60923 -0.21282,-3.8626 0.0353,-2.28714 0.55271,-5.21462 0.57662,-3.32695 1.74428,-7.67589 l 3.76965,0.20258 q -1.13465,3.63157 -1.42371,4.59362 -0.85507,3.08681 -1.36227,6.29844 l 0.11533,0.0694 q 0.4006,-0.72571 1.23821,-1.57509 0.83762,-0.84937 1.8505,-1.32736 2.97111,-1.4021 6.26695,-0.19158 3.29585,1.21052 4.85728,4.51926 z m -3.27688,1.62896 q -0.97191,-2.05952 -2.82278,-2.9199 -2.04966,-0.9317 -4.21047,0.088 -2.09329,0.98784 -2.85996,3.12475 -0.74885,2.08722 0.28679,4.28179 0.94005,1.992 2.97567,2.80647 2.03562,0.81448 4.19643,-0.20523 2.05952,-0.97191 2.78864,-2.92597 0.72912,-1.95406 -0.35432,-4.24992 z"
       id="path2528" /><path
       d="m 307.01835,309.31687 -29.35378,23.06796 -1.70703,-2.17218 29.35378,-23.06796 z"
       id="path2530" /></g></svg>
