<?xml version="1.0" standalone="no"?>
<!DOCTYPE svg PUBLIC "-//W3C//DTD SVG 20010904//EN"
 "http://www.w3.org/TR/2001/REC-SVG-20010904/DTD/svg10.dtd">
<svg version="1.0" xmlns="http://www.w3.org/2000/svg"
 width="1024.000000pt" height="1024.000000pt" viewBox="0 0 1024.000000 1024.000000"
 preserveAspectRatio="xMidYMid meet">
<metadata>
Created by potrace 1.14, written by Peter Selinger 2001-2017
</metadata>
<g transform="translate(0.000000,1024.000000) scale(0.100000,-0.100000)"
fill="#000000" stroke="none">
<path d="M4780 10233 c-1122 -81 -2150 -503 -3005 -1231 -139 -119 -451 -434
-566 -572 -638 -767 -1030 -1646 -1163 -2605 -37 -265 -41 -335 -41 -710 1
-406 9 -517 61 -830 369 -2215 2129 -3932 4349 -4239 262 -37 336 -41 700 -41
365 0 465 6 715 41 1869 264 3437 1525 4093 3294 154 415 241 792 299 1295 20
175 17 832 -5 1020 -102 869 -380 1632 -850 2329 -877 1302 -2289 2121 -3871
2246 -116 9 -605 11 -716 3z m774 -98 c1536 -136 2905 -948 3763 -2235 441
-662 711 -1409 810 -2245 26 -216 25 -855 0 -1070 -55 -457 -146 -838 -297
-1240 -326 -869 -897 -1640 -1635 -2210 -739 -570 -1582 -909 -2540 -1022
-190 -22 -832 -25 -1020 -5 -809 89 -1518 330 -2177 740 -533 332 -1011 773
-1380 1272 -535 723 -856 1542 -964 2455 -22 188 -30 708 -15 914 119 1569
949 2978 2266 3844 709 466 1548 748 2405 810 142 11 632 5 784 -8z"/>
<path d="M5243 10006 c-101 -33 -187 -109 -232 -206 -23 -48 -26 -68 -26 -155
0 -93 2 -105 32 -166 39 -79 102 -140 181 -177 50 -24 70 -27 157 -27 87 0
107 3 157 27 79 37 142 98 181 177 30 61 32 73 32 166 0 93 -2 105 -33 167
-38 78 -101 139 -182 176 -67 31 -199 40 -267 18z m202 -103 c56 -19 121 -79
150 -138 23 -49 31 -146 16 -201 -15 -57 -72 -128 -129 -161 -41 -24 -58 -28
-127 -28 -69 0 -86 4 -127 27 -172 102 -187 353 -27 464 79 54 158 67 244 37z"/>
<path d="M4630 9985 c-113 -13 -206 -24 -206 -24 -1 -1 -5 -17 -8 -37 -4 -19
-10 -42 -13 -51 -5 -13 4 -14 63 -8 38 3 80 8 94 11 l26 5 32 -312 c18 -172
34 -314 36 -316 2 -2 27 2 55 9 51 11 52 13 47 42 -12 75 -59 576 -54 581 3 3
38 9 77 12 39 3 74 10 77 15 7 11 -6 98 -15 97 -3 -1 -98 -12 -211 -24z"/>
<path d="M4223 9933 c-28 -9 -43 -21 -43 -31 0 -22 128 -693 133 -698 9 -9 92
24 95 37 2 13 -101 588 -123 687 -6 25 -6 25 -62 5z"/>
<path d="M5930 9888 c-6 -29 -39 -188 -74 -353 l-63 -300 49 -9 c29 -5 52 -5
57 0 4 5 23 80 41 166 l33 158 82 -198 82 -197 58 2 c31 1 59 4 61 6 3 2 -27
75 -66 162 -72 163 -74 174 -26 175 10 0 36 10 57 22 78 44 114 180 70 266
-37 73 -86 102 -220 132 -130 29 -128 29 -141 -32z m174 -79 c57 -16 96 -58
96 -104 0 -92 -60 -142 -156 -130 -30 3 -56 10 -58 13 -4 7 27 174 40 215 6
20 24 21 78 6z"/>
<path d="M3770 9829 c-56 -25 -86 -53 -112 -103 -38 -73 -9 -191 58 -242 26
-21 57 -29 159 -44 141 -20 168 -34 179 -95 20 -105 -96 -170 -204 -115 -22
11 -41 20 -43 20 -3 0 -16 -18 -30 -39 -30 -45 -28 -48 47 -80 58 -25 151 -28
204 -5 111 46 165 178 118 289 -34 80 -70 101 -205 121 -53 8 -111 19 -128 25
-67 22 -84 95 -35 149 37 43 92 50 157 21 52 -23 51 -24 82 33 15 28 14 31 -7
48 -51 42 -167 50 -240 17z"/>
<path d="M6463 9798 c3 -13 27 -123 53 -246 l48 -222 -90 -93 c-128 -130 -123
-120 -68 -152 38 -23 48 -25 59 -14 6 8 117 127 245 264 129 138 244 262 258
276 l24 27 -45 31 -45 31 -123 -135 c-67 -74 -124 -133 -127 -131 -3 4 -82
371 -82 384 0 1 -25 2 -56 2 -53 0 -56 -1 -51 -22z"/>
<path d="M3153 9600 c-112 -23 -220 -109 -271 -218 -24 -50 -27 -69 -27 -157
0 -89 3 -106 28 -157 80 -163 263 -249 433 -203 181 49 291 198 282 382 -8
171 -116 304 -283 347 -64 17 -97 18 -162 6z m182 -129 c101 -47 154 -130 155
-237 0 -164 -104 -274 -260 -274 -155 1 -271 117 -269 270 0 36 6 79 12 97 56
151 214 214 362 144z"/>
<path d="M7242 9142 c-94 -164 -174 -306 -178 -315 -5 -13 4 -22 41 -38 26
-11 48 -19 50 -17 2 1 38 64 80 138 43 74 78 136 79 137 1 1 44 -23 96 -52
l94 -54 24 39 c13 22 21 44 17 49 -3 6 -38 28 -78 50 -39 22 -78 45 -86 50
-11 7 -5 24 28 85 23 41 46 78 51 81 5 3 62 -24 125 -61 65 -37 120 -63 125
-58 9 11 33 84 28 88 -18 14 -310 176 -316 176 -5 0 -86 -134 -180 -298z"/>
<path d="M2450 9204 c-68 -31 -211 -136 -205 -151 6 -18 372 -562 390 -581 10
-11 19 -8 49 19 20 17 36 37 34 43 -2 6 -34 58 -73 115 l-70 104 25 16 c49 32
122 106 142 145 16 30 19 53 16 102 -4 71 -34 125 -94 171 -32 24 -48 28 -108
30 -47 2 -83 -3 -106 -13z m139 -99 c38 -19 75 -94 66 -133 -3 -16 -20 -42
-38 -59 -36 -34 -97 -77 -101 -72 -1 2 -32 48 -69 101 l-67 97 45 31 c76 53
115 61 164 35z"/>
<path d="M4915 9154 c-616 -46 -1084 -169 -1590 -419 -1205 -594 -2032 -1754
-2209 -3095 -163 -1235 266 -2495 1149 -3375 661 -658 1499 -1057 2437 -1162
208 -23 626 -23 836 1 1395 154 2589 986 3202 2231 424 862 529 1822 300 2750
-408 1654 -1798 2867 -3497 3050 -134 15 -527 27 -628 19z m635 -109 c1100
-127 2070 -681 2732 -1560 426 -566 691 -1251 770 -1985 7 -63 12 -234 12
-380 0 -366 -31 -628 -115 -963 -230 -914 -774 -1708 -1554 -2264 -530 -378
-1164 -617 -1855 -700 -203 -24 -639 -24 -845 1 -497 59 -928 188 -1359 405
-577 292 -1062 712 -1451 1256 -367 514 -610 1159 -691 1835 -22 178 -25 636
-6 810 150 1376 942 2533 2157 3146 479 242 986 378 1555 418 113 8 520 -4
650 -19z"/>
<path d="M4995 8298 c-152 -376 -287 -698 -371 -885 -37 -81 -77 -171 -90
-199 l-23 -51 137 -136 c145 -144 241 -228 375 -328 107 -81 109 -83 62 -64
-176 73 -464 236 -580 329 -22 18 -46 36 -52 40 -9 5 -58 -85 -164 -295 -329
-659 -773 -1489 -1431 -2677 -132 -238 -238 -435 -237 -437 2 -2 69 34 149 79
696 396 1254 635 1720 737 58 13 106 24 108 25 1 0 -5 43 -14 95 -22 126 -22
344 1 474 55 324 213 570 413 645 46 18 73 21 142 18 120 -5 180 -34 285 -141
69 -70 89 -99 138 -197 91 -185 127 -351 127 -585 0 -124 -11 -250 -25 -295
-4 -12 24 -22 138 -50 452 -107 1048 -369 1707 -748 57 -34 106 -59 108 -57 3
2 -90 178 -204 391 l-209 387 -180 144 c-197 158 -386 289 -537 373 -53 30
-95 56 -93 58 7 7 235 -68 350 -115 61 -24 148 -65 194 -89 63 -35 82 -41 77
-28 -4 10 -103 199 -220 419 -483 904 -898 1715 -1101 2150 -113 242 -304 677
-460 1048 -60 141 -112 257 -115 257 -4 0 -60 -132 -125 -292z"/>
<path d="M4318 3625 l-88 -20 0 -483 0 -484 28 6 c15 3 55 11 90 17 l62 12 0
226 c0 201 2 230 18 261 44 81 188 106 262 44 l30 -26 0 -269 c0 -216 3 -269
13 -269 14 0 114 16 155 25 l22 5 0 282 c0 263 -1 283 -20 313 -46 75 -163
125 -293 125 -102 0 -133 -10 -217 -68 l-65 -45 48 49 48 50 -3 135 -3 134
-87 -20z"/>
<path d="M7105 3593 c-72 -15 -65 3 -65 -167 l0 -155 -56 34 c-181 109 -403
39 -492 -154 -22 -47 -26 -70 -26 -146 0 -80 3 -97 30 -155 36 -75 107 -150
174 -183 37 -18 62 -22 140 -22 103 0 153 17 213 73 l27 26 0 -53 c0 -52 0
-53 28 -47 15 2 44 7 65 11 l37 6 0 469 0 470 -27 -1 c-16 -1 -37 -3 -48 -6z
m-185 -384 c94 -42 134 -107 134 -214 0 -85 -25 -141 -85 -184 -117 -85 -275
-49 -341 78 -50 95 -33 204 43 280 18 19 47 40 64 47 46 20 133 17 185 -7z"/>
<path d="M5219 3237 l-257 -352 199 -3 199 -2 0 -115 0 -115 43 0 c88 0 87 -2
87 121 l0 109 64 0 c70 0 68 -2 82 73 l6 37 -76 0 -76 0 0 300 c0 165 -3 300
-7 300 -5 -1 -123 -159 -264 -353z m141 -112 l0 -135 -94 0 -95 0 92 135 c51
74 93 134 95 135 1 0 2 -61 2 -135z"/>
<path d="M2532 3416 c-34 -7 -66 -17 -71 -22 -8 -9 -41 -176 -36 -182 1 -2 54
7 118 19 134 25 196 21 233 -16 13 -13 24 -31 24 -38 0 -12 -7 -11 -37 5 -54
28 -206 22 -278 -11 -104 -46 -148 -116 -148 -231 0 -123 46 -204 148 -258 44
-24 62 -27 145 -27 113 0 137 10 224 94 l59 56 -34 -48 c-53 -76 -64 -95 -57
-102 3 -4 42 -1 86 6 l80 12 7 206 c13 349 -3 432 -91 493 -78 54 -229 72
-372 44z m172 -387 c84 -23 120 -96 74 -154 -57 -73 -188 -71 -245 4 -23 30
-16 85 16 115 44 42 91 53 155 35z"/>
<path d="M3210 3409 c-25 -4 -60 -11 -77 -14 l-33 -6 0 -371 0 -370 30 6 c17
3 59 11 95 17 l64 12 3 228 c3 227 3 227 28 254 33 36 74 56 128 64 l46 6 38
89 c21 49 36 91 33 94 -3 3 -43 1 -89 -6 -91 -12 -155 -38 -180 -74 -15 -22
-16 -20 -16 30 0 57 3 55 -70 41z"/>
<path d="M3769 3400 c-181 -33 -289 -172 -289 -373 0 -218 143 -362 371 -375
130 -7 229 28 302 106 l28 29 -62 56 -61 56 -37 -28 c-97 -76 -225 -65 -298
24 -57 68 -65 170 -19 238 36 54 99 82 182 82 62 0 77 -4 121 -31 l51 -32 53
65 c30 35 55 68 57 73 5 13 -85 70 -145 91 -63 23 -187 32 -254 19z"/>
<path d="M5994 3351 c-96 -25 -195 -108 -237 -199 -18 -38 -22 -65 -22 -147 0
-87 4 -107 27 -157 35 -76 106 -150 171 -179 43 -20 69 -24 152 -24 91 0 106
3 165 31 36 17 75 40 88 50 23 19 23 21 11 87 -12 64 -21 79 -34 58 -13 -22
-125 -81 -178 -95 -48 -13 -65 -13 -108 -2 -49 13 -120 67 -119 90 1 6 104 76
230 156 127 80 230 150 230 157 0 25 -103 123 -156 149 -59 29 -161 40 -220
25z m174 -142 c22 -16 19 -18 -138 -118 -88 -55 -163 -101 -166 -101 -12 0 5
90 25 128 40 78 104 114 196 109 34 -1 70 -9 83 -18z"/>
<path d="M7363 3348 l-53 -10 0 -264 c0 -216 3 -271 15 -302 36 -84 103 -123
221 -130 95 -5 141 7 190 50 l34 30 0 -42 0 -42 57 7 c31 4 62 9 70 12 10 4
13 71 13 355 l0 350 -22 -5 c-13 -3 -44 -9 -70 -12 l-47 -7 -3 -232 c-3 -220
-4 -233 -26 -268 -61 -98 -249 -105 -288 -12 -11 25 -14 94 -14 284 0 194 -3
250 -12 249 -7 -1 -37 -6 -65 -11z"/>
<path d="M7809 9017 c-97 -41 -163 -108 -212 -214 -31 -69 -29 -195 3 -278 30
-76 116 -165 197 -203 50 -23 71 -27 153 -27 84 0 103 3 157 29 76 35 153 113
191 193 23 50 27 71 27 148 0 80 -4 98 -31 155 -37 79 -107 150 -183 187 -46
23 -71 28 -151 31 -82 2 -103 -1 -151 -21z m227 -92 c60 -18 127 -72 157 -129
31 -58 31 -183 0 -242 -56 -105 -134 -154 -245 -154 -110 0 -183 41 -232 129
-99 183 29 403 240 410 17 1 53 -6 80 -14z"/>
<path d="M1921 8810 c-74 -66 -138 -123 -143 -128 -8 -8 442 -533 463 -540 9
-4 299 245 299 256 0 14 -33 92 -39 92 -3 -1 -59 -47 -124 -105 l-118 -104
-70 79 c-38 43 -69 83 -69 88 0 5 38 42 85 83 47 40 85 75 85 79 0 3 -15 21
-33 38 l-34 33 -88 -78 -88 -77 -63 69 c-35 39 -63 72 -63 75 0 3 49 48 109
99 61 52 110 97 110 100 0 5 -67 53 -80 58 -3 1 -65 -52 -139 -117z"/>
<path d="M8338 8327 c-147 -133 -267 -245 -267 -250 -1 -10 61 -66 74 -67 6 0
65 50 132 111 68 60 121 104 118 97 -2 -7 -22 -92 -45 -188 -22 -96 -42 -185
-45 -197 -4 -17 4 -28 39 -52 25 -17 49 -31 54 -31 5 0 23 71 41 158 18 86 35
165 37 174 4 15 9 15 51 -4 88 -39 186 -2 240 89 62 107 38 186 -104 340 l-58
63 -267 -243z m312 42 c31 -39 40 -59 40 -89 0 -71 -73 -129 -145 -116 -34 7
-116 72 -114 92 0 8 168 164 176 164 1 0 21 -23 43 -51z"/>
<path d="M1591 8438 c-53 -15 -99 -51 -173 -135 -37 -43 -68 -80 -67 -83 1 -9
531 -475 540 -475 11 0 59 66 58 79 0 6 -54 58 -119 116 -64 58 -117 106 -115
107 1 2 88 -8 193 -22 105 -14 200 -25 210 -25 12 0 27 18 44 54 l27 53 -102
12 c-56 6 -135 14 -175 17 -40 4 -75 11 -78 15 -3 5 0 18 6 29 16 30 14 113
-3 146 -22 41 -65 80 -117 103 -49 22 -77 24 -129 9z m99 -115 c34 -23 58 -53
65 -81 9 -37 -12 -95 -49 -131 l-35 -34 -85 78 c-47 43 -86 81 -86 85 0 9 83
87 100 93 30 11 66 7 90 -10z"/>
<path d="M8900 7640 c-162 -99 -296 -184 -298 -188 -3 -11 196 -337 206 -337
4 1 26 4 50 9 52 10 55 1 -45 163 -41 68 -74 125 -72 127 2 2 45 29 96 59 l91
56 56 -94 c31 -52 61 -97 66 -100 6 -3 28 4 50 17 l39 24 -59 97 c-33 54 -60
101 -60 105 0 9 153 101 161 97 3 -3 39 -58 79 -125 40 -66 76 -120 79 -120 4
0 22 15 39 33 l33 34 -98 161 c-54 89 -102 162 -108 162 -5 0 -143 -81 -305
-180z"/>
<path d="M1017 7776 l-38 -34 70 -140 70 -139 -106 -7 c-58 -3 -128 -6 -154
-6 -47 0 -48 -1 -58 -37 -21 -74 -19 -76 57 -69 37 3 122 8 188 12 119 6 122
6 129 -15 4 -12 44 -101 91 -197 l84 -175 44 31 45 30 -81 165 c-45 91 -79
168 -75 171 4 4 86 9 182 12 97 3 177 8 179 11 2 3 7 28 11 55 l8 49 -144 -7
c-79 -3 -178 -9 -219 -12 l-75 -6 -79 171 c-44 94 -82 171 -85 171 -3 -1 -23
-16 -44 -34z"/>
<path d="M9188 7152 c-175 -76 -320 -141 -323 -144 -6 -6 69 -179 100 -228 32
-50 90 -99 155 -129 45 -21 70 -26 140 -26 74 0 93 4 150 31 79 38 140 97 177
172 25 50 28 68 28 152 0 90 -2 100 -45 199 -25 58 -49 106 -55 107 -5 2 -153
-59 -327 -134z m303 -46 c48 -109 30 -216 -50 -296 -134 -134 -344 -92 -422
85 -18 41 -19 51 -8 58 19 12 442 196 452 196 4 1 17 -19 28 -43z"/>
<path d="M661 7133 c-5 -27 -7 -51 -3 -54 4 -3 111 -47 238 -98 127 -50 240
-99 252 -107 36 -25 55 -72 48 -116 -14 -89 -67 -148 -133 -148 -15 0 -139 45
-275 100 -136 55 -251 100 -256 100 -11 0 -33 -93 -24 -102 15 -13 435 -179
494 -194 114 -29 183 -5 240 85 33 52 68 158 68 204 0 57 -38 116 -101 157
-53 34 -497 220 -526 220 -6 0 -16 -21 -22 -47z"/>
<path d="M9545 6541 c-296 -79 -356 -106 -391 -174 -39 -74 -5 -253 63 -328
71 -79 139 -77 478 11 132 35 242 65 244 66 2 2 -6 25 -17 51 -15 35 -26 47
-39 45 -10 -2 -120 -30 -245 -63 -256 -67 -293 -71 -337 -34 -58 50 -79 168
-37 214 27 30 79 47 331 112 132 34 242 63 243 65 2 1 -7 25 -20 52 l-23 49
-250 -66z"/>
<path d="M426 6473 c-3 -3 -6 -28 -6 -54 0 -37 4 -49 18 -53 9 -2 103 -24 207
-47 105 -23 195 -45 202 -48 7 -3 -117 -80 -274 -170 -227 -131 -282 -166
-267 -173 23 -10 678 -158 698 -158 17 0 27 100 11 106 -5 2 -102 24 -215 49
-113 25 -211 48 -219 51 -8 3 84 61 205 131 345 198 356 205 351 209 -2 2
-152 38 -333 79 -181 41 -338 77 -350 80 -12 2 -24 2 -28 -2z"/>
<path d="M9580 5878 c-114 -18 -234 -110 -283 -215 -29 -65 -31 -199 -3 -261
l19 -42 58 0 58 0 -25 45 c-37 65 -42 138 -14 203 91 212 411 223 506 17 25
-54 31 -125 14 -171 -10 -26 -10 -26 21 -20 69 14 84 27 87 81 8 114 -39 211
-137 285 -90 68 -195 95 -301 78z"/>
<path d="M264 5718 c-3 -5 -3 -30 1 -56 l6 -47 360 -41 359 -40 0 53 c0 34 -5
55 -12 58 -35 11 -710 80 -714 73z"/>
<path d="M870 5438 c0 -29 -3 -97 -7 -151 l-6 -98 -76 5 c-42 3 -184 8 -315
12 l-239 6 6 -52 c4 -29 8 -54 9 -55 4 -4 710 -27 713 -23 2 2 6 85 10 185 l7
181 -28 15 c-16 8 -39 18 -51 21 -22 7 -23 5 -23 -46z"/>
<path d="M9315 5298 c-2 -7 -8 -29 -13 -48 l-9 -36 118 -64 119 -64 -1 -91
c-1 -49 -4 -114 -7 -143 l-7 -53 -120 -54 -120 -53 4 -43 c1 -24 6 -49 10 -55
4 -7 135 47 374 155 202 91 367 168 367 171 0 6 -694 390 -704 390 -4 0 -8 -6
-11 -12z m410 -315 c47 -26 85 -49 85 -52 0 -4 -42 -25 -92 -47 l-93 -40 3 93
c2 51 5 93 7 93 2 0 43 -21 90 -47z"/>
<path d="M605 4594 c-192 -35 -351 -64 -352 -64 -10 -1 38 -96 48 -98 8 -1 72
8 144 22 72 13 131 23 132 22 4 -3 61 -331 58 -334 -1 -2 -67 -15 -146 -29
-79 -14 -146 -27 -148 -29 -5 -5 20 -94 28 -99 8 -4 709 120 717 127 10 10
-29 98 -43 98 -8 0 -78 -12 -155 -26 -77 -14 -142 -23 -145 -20 -5 4 -63 308
-63 326 0 4 73 19 163 35 89 15 163 29 164 29 8 5 -31 106 -40 105 -7 0 -169
-29 -362 -65z"/>
<path d="M9887 4492 c-2 -4 -10 -44 -17 -89 -8 -46 -14 -83 -15 -83 0 0 -138
25 -305 55 -168 30 -308 55 -312 55 -5 0 -8 -24 -8 -54 l0 -54 113 -20 c61
-12 193 -36 292 -53 99 -18 184 -36 189 -40 4 -4 3 -39 -4 -79 -7 -40 -8 -75
-4 -80 5 -4 27 -10 49 -13 l40 -6 37 206 c21 113 35 210 32 215 -9 14 -83 48
-87 40z"/>
<path d="M9155 4039 c-4 -27 -5 -52 -4 -53 9 -7 700 -188 703 -185 2 2 7 27
10 54 l7 50 -348 93 c-191 51 -351 93 -355 92 -3 0 -9 -23 -13 -51z"/>
<path d="M1042 3968 l-52 -10 35 -41 c32 -38 65 -117 65 -157 0 -47 -34 -122
-75 -168 -108 -120 -294 -131 -403 -23 -46 46 -63 85 -69 153 -3 32 -8 58 -11
58 -13 0 -92 -52 -92 -60 0 -27 25 -120 41 -151 26 -52 111 -124 177 -151 46
-18 76 -23 157 -23 88 0 107 3 157 27 159 74 250 261 205 419 -15 50 -65 140
-77 138 -3 -1 -29 -6 -58 -11z"/>
<path d="M9223 3775 c-106 -33 -205 -123 -245 -223 -17 -44 -22 -77 -22 -147
0 -81 3 -97 32 -156 72 -149 247 -241 400 -210 165 33 280 149 311 313 18 99
-17 227 -84 306 -89 105 -264 158 -392 117z m223 -123 c87 -44 143 -126 151
-221 10 -113 -40 -204 -141 -255 -182 -94 -397 35 -400 240 -2 113 77 220 188
254 50 15 156 6 202 -18z"/>
<path d="M1180 3342 l-84 -159 -39 28 c-60 44 -103 52 -168 33 -104 -31 -170
-129 -154 -230 3 -24 29 -90 58 -147 l52 -104 320 158 c176 87 324 160 329
162 5 2 -5 24 -23 50 l-32 47 -139 -70 c-77 -39 -144 -70 -149 -70 -5 0 35 80
90 177 54 98 99 182 99 188 0 5 -18 30 -38 54 l-38 43 -84 -160z m-150 -220
c23 -17 69 -87 70 -104 0 -8 -193 -108 -208 -108 -15 0 -52 90 -52 126 0 48
14 70 58 94 43 23 93 20 132 -8z"/>
<path d="M8768 3076 c-12 -25 -20 -47 -17 -50 2 -2 91 -59 197 -126 106 -67
191 -124 190 -125 -2 -2 -148 -29 -326 -61 -177 -32 -322 -60 -322 -63 1 -6
604 -391 613 -391 5 0 47 86 47 95 0 1 -42 29 -92 61 -51 32 -138 87 -193 123
l-100 64 295 53 c162 29 310 56 329 59 28 5 32 9 20 19 -19 17 -581 373 -602
381 -12 5 -22 -4 -39 -39z"/>
<path d="M1484 3029 c-25 -41 -383 -704 -380 -706 3 -3 745 103 783 112 22 5
22 6 5 50 -19 52 -19 52 -157 30 -129 -21 -136 -20 -165 23 -14 20 -49 71 -78
113 l-52 76 65 118 66 119 -39 39 c-30 30 -41 36 -48 26z m-6 -556 c-7 -2 -54
-9 -105 -16 l-92 -14 16 31 c8 17 31 59 50 94 l35 63 55 -78 c34 -49 49 -79
41 -80z"/>
<path d="M1831 1809 c-13 -17 -19 -34 -15 -38 35 -31 801 -631 808 -633 5 -2
19 11 32 28 l24 31 -401 318 c-221 174 -407 319 -413 321 -7 3 -22 -10 -35
-27z"/>
<path d="M7945 1515 c-220 -174 -401 -319 -403 -324 -2 -5 8 -22 22 -37 22
-27 25 -28 43 -13 10 9 194 154 410 323 l392 308 -21 29 c-12 16 -27 29 -32
29 -6 -1 -191 -142 -411 -315z"/>
<path d="M6881 1283 c-50 -219 -55 -374 -12 -468 45 -102 127 -158 226 -158
136 0 247 94 262 222 16 137 -85 263 -222 278 -54 7 -109 -11 -158 -49 l-38
-30 7 29 c6 28 52 204 61 234 5 18 -22 29 -74 29 -31 0 -31 0 -52 -87z m289
-245 c49 -34 72 -70 78 -123 6 -61 -16 -104 -68 -134 -75 -42 -162 -16 -200
60 -25 49 -25 90 0 139 37 73 128 100 190 58z"/>
<path d="M3458 1274 l-47 -24 16 -47 c9 -27 18 -50 20 -53 2 -2 24 7 49 20 48
27 50 34 21 101 l-12 27 -47 -24z"/>
<path d="M3000 1228 c-19 -13 -45 -44 -58 -70 -33 -65 -23 -104 42 -176 91
-99 104 -132 68 -165 -40 -37 -122 -4 -148 59 -14 34 -17 36 -52 29 -47 -8
-56 -18 -48 -47 18 -72 101 -142 183 -154 86 -13 170 43 193 128 15 53 -3 94
-75 168 -74 77 -85 116 -41 145 21 14 28 14 58 2 37 -16 62 -42 72 -74 7 -21
8 -21 51 -6 25 8 45 20 45 26 -1 28 -48 93 -88 121 -59 42 -151 49 -202 14z"/>
<path d="M6440 1108 c-36 -51 -80 -114 -99 -141 l-35 -48 28 -27 27 -27 57 63
57 63 84 -253 c46 -139 87 -257 91 -261 4 -5 29 1 55 12 37 17 46 24 40 38 -3
10 -56 165 -117 346 -61 180 -113 327 -117 327 -3 0 -35 -42 -71 -92z"/>
<path d="M3355 1066 c-12 -28 -60 -140 -105 -250 -64 -153 -80 -200 -69 -206
21 -14 81 -22 90 -13 10 10 212 494 207 497 -2 1 -25 7 -52 13 l-48 11 -23
-52z"/>
<path d="M5930 1040 c-69 -23 -124 -82 -145 -153 -31 -106 -10 -299 45 -407
30 -59 98 -130 145 -151 56 -26 129 -24 190 5 101 48 140 122 139 271 0 218
-95 401 -228 440 -63 19 -79 19 -146 -5z m115 -90 c25 0 74 -51 98 -103 37
-78 60 -197 55 -277 -6 -79 -29 -123 -74 -145 -118 -56 -212 55 -244 284 -12
87 -1 160 28 199 19 25 89 54 110 47 8 -3 20 -5 27 -5z"/>
<path d="M3537 1033 c-8 -13 -167 -507 -164 -509 1 -2 26 -6 54 -10 l52 -6 46
148 c26 82 56 164 67 182 39 63 120 80 192 39 67 -37 66 -52 -4 -268 -34 -105
-59 -193 -56 -196 3 -3 27 -8 54 -11 l48 -4 17 53 c87 266 108 344 102 382
-18 104 -182 188 -289 147 -24 -9 -25 -8 -20 19 5 23 2 29 -18 34 -32 9 -76 9
-81 0z"/>
<path d="M5406 965 c-53 -19 -85 -44 -121 -94 -27 -39 -30 -50 -30 -119 0 -78
20 -136 64 -186 17 -19 83 -56 100 -56 6 0 24 20 40 44 l31 44 -30 7 c-70 15
-120 95 -106 170 4 17 22 47 42 66 32 31 40 34 94 34 51 0 63 -4 89 -29 21
-20 32 -43 37 -72 9 -63 -25 -128 -183 -347 -74 -103 -132 -191 -129 -194 9
-9 439 29 454 40 6 5 12 30 12 54 l0 45 -32 -5 c-18 -4 -78 -9 -132 -13 -114
-8 -111 -16 -25 93 147 185 181 323 109 436 -53 84 -178 120 -284 82z"/>
<path d="M4112 839 c-63 -32 -129 -110 -148 -177 -68 -232 152 -436 364 -337
28 13 52 27 52 30 0 12 -46 75 -55 75 -5 -1 -21 -7 -35 -15 -14 -8 -46 -14
-71 -15 -143 -1 -214 194 -111 303 37 39 74 57 119 57 42 0 111 -28 132 -53
18 -23 26 -21 67 10 l35 26 -31 32 c-52 53 -115 79 -200 82 -60 2 -83 -1 -118
-18z"/>
<path d="M4661 789 c-163 -31 -256 -197 -206 -366 35 -117 124 -184 255 -190
65 -3 84 0 140 25 l65 28 -4 54 c-1 30 -4 56 -6 58 -2 2 -31 -11 -65 -28 -79
-40 -144 -48 -194 -25 -32 15 -85 71 -75 79 2 2 90 47 196 101 l191 99 -15 29
c-27 53 -95 112 -143 125 -74 18 -93 20 -139 11z m128 -116 c21 -18 19 -19
-109 -86 l-130 -68 0 27 c0 40 44 109 82 127 45 22 130 22 157 0z"/>
</g>
</svg>
